<?xml version="1.0" encoding="UTF-8" standalone="no"?>
<!-- Created with Inkscape (http://www.inkscape.org/) -->

<svg
   xmlns:dc="http://purl.org/dc/elements/1.1/"
   xmlns:cc="http://creativecommons.org/ns#"
   xmlns:rdf="http://www.w3.org/1999/02/22-rdf-syntax-ns#"
   xmlns:svg="http://www.w3.org/2000/svg"
   xmlns="http://www.w3.org/2000/svg"
   xmlns:sodipodi="http://sodipodi.sourceforge.net/DTD/sodipodi-0.dtd"
   xmlns:inkscape="http://www.inkscape.org/namespaces/inkscape"
   width="24.28643mm"
   height="25.787552mm"
   viewBox="0 0 86.054281 91.373216"
   id="svg2"
   version="1.1"
   inkscape:version="0.91 r13725"
   sodipodi:docname="favicon tslib 2.svg"
   inkscape:export-filename="/home/ravi/Pictures/TSLIB favicon.png"
   inkscape:export-xdpi="90"
   inkscape:export-ydpi="90">
  <defs
     id="defs4">
    <inkscape:path-effect
       effect="spiro"
       id="path-effect5359"
       is_visible="true" />
    <inkscape:path-effect
       effect="spiro"
       id="path-effect5355"
       is_visible="true" />
    <inkscape:path-effect
       effect="spiro"
       id="path-effect4545"
       is_visible="true" />
    <inkscape:path-effect
       effect="spiro"
       id="path-effect4541"
       is_visible="true" />
    <inkscape:path-effect
       effect="spiro"
       id="path-effect4537"
       is_visible="true" />
    <inkscape:path-effect
       effect="spiro"
       id="path-effect4533"
       is_visible="true" />
    <inkscape:path-effect
       effect="spiro"
       id="path-effect4529"
       is_visible="true" />
    <inkscape:path-effect
       effect="spiro"
       id="path-effect4525"
       is_visible="true" />
    <inkscape:path-effect
       effect="spiro"
       id="path-effect4495"
       is_visible="true" />
    <inkscape:path-effect
       effect="spiro"
       id="path-effect4491"
       is_visible="true" />
    <inkscape:path-effect
       effect="spiro"
       id="path-effect4487"
       is_visible="true" />
    <inkscape:path-effect
       effect="spiro"
       id="path-effect4483"
       is_visible="true" />
    <marker
       inkscape:stockid="Arrow1Lend"
       orient="auto"
       refY="0"
       refX="0"
       id="Arrow1Lend"
       style="overflow:visible"
       inkscape:isstock="true">
      <path
         id="path4156"
         d="M 0,0 5,-5 -12.5,0 5,5 0,0 Z"
         style="fill:#000000;fill-opacity:1;fill-rule:evenodd;stroke:#000000;stroke-width:1pt;stroke-opacity:1"
         transform="matrix(-0.8,0,0,-0.8,-10,0)"
         inkscape:connector-curvature="0" />
    </marker>
    <marker
       inkscape:stockid="Arrow1Lstart"
       orient="auto"
       refY="0"
       refX="0"
       id="Arrow1Lstart"
       style="overflow:visible"
       inkscape:isstock="true">
      <path
         id="path4153"
         d="M 0,0 5,-5 -12.5,0 5,5 0,0 Z"
         style="fill:#000000;fill-opacity:1;fill-rule:evenodd;stroke:#000000;stroke-width:1pt;stroke-opacity:1"
         transform="matrix(0.8,0,0,0.8,10,0)"
         inkscape:connector-curvature="0" />
    </marker>
    <clipPath
       id="clipPath40">
      <path
         id="path4280"
         d="M 0,612 792,612 792,0 0,0 0,612 Z"
         inkscape:connector-curvature="0" />
    </clipPath>
  </defs>
  <sodipodi:namedview
     id="base"
     pagecolor="#ffffff"
     bordercolor="#666666"
     borderopacity="1.0"
     inkscape:pageopacity="0.0"
     inkscape:pageshadow="2"
     inkscape:zoom="5.6"
     inkscape:cx="40.763659"
     inkscape:cy="14.514546"
     inkscape:document-units="px"
     inkscape:current-layer="layer1"
     showgrid="false"
     showguides="false"
     fit-margin-top="0"
     fit-margin-left="0"
     fit-margin-right="0"
     fit-margin-bottom="0"
     inkscape:window-width="1920"
     inkscape:window-height="1024"
     inkscape:window-x="0"
     inkscape:window-y="30"
     inkscape:window-maximized="1" />
  <metadata
     id="metadata7">
    <rdf:RDF>
      <cc:Work
         rdf:about="">
        <dc:format>image/svg+xml</dc:format>
        <dc:type
           rdf:resource="http://purl.org/dc/dcmitype/StillImage" />
        <dc:title></dc:title>
      </cc:Work>
    </rdf:RDF>
  </metadata>
  <g
     inkscape:label="Layer 1"
     inkscape:groupmode="layer"
     id="layer1"
     transform="translate(-25.462612,-345.78527)">
    <g
       style="font-style:normal;font-weight:normal;font-size:15px;line-height:125%;font-family:sans-serif;letter-spacing:0px;word-spacing:0px;fill:#000000;fill-opacity:1;stroke:none;stroke-width:1px;stroke-linecap:butt;stroke-linejoin:miter;stroke-opacity:1"
       id="text4467"
       transform="matrix(0.79998496,0,0,0.9120848,-280.12207,34.906815)">
      <path
         d="m 488.88291,347.12595 c -0.12,0.135 -0.195,0.225 -0.33,0.405 -0.345,0.45 -0.525,0.6 -0.69,0.6 -0.225,0 -0.36,-0.195 -0.465,-0.615 -0.03,-0.12 -0.045,-0.21 -0.06,-0.255 -0.375,-1.515 -0.54,-2.205 -0.54,-2.43 0.66,-1.155 1.2,-1.815 1.47,-1.815 0.09,0 0.21,0.045 0.36,0.12 0.18,0.105 0.285,0.135 0.405,0.135 0.315,0 0.525,-0.225 0.525,-0.54 0,-0.315 -0.255,-0.555 -0.615,-0.555 -0.66,0 -1.23,0.54 -2.265,2.145 l -0.165,-0.825 c -0.21,-1.02 -0.375,-1.32 -0.78,-1.32 -0.33,0 -0.84,0.135 -1.755,0.435 l -0.165,0.06 0.06,0.225 c 0.57,-0.135 0.705,-0.165 0.84,-0.165 0.375,0 0.465,0.135 0.675,1.035 l 0.435,1.845 -1.23,1.755 c -0.3,0.45 -0.6,0.72 -0.765,0.72 -0.09,0 -0.24,-0.045 -0.39,-0.135 -0.195,-0.105 -0.36,-0.15 -0.48,-0.15 -0.285,0 -0.51,0.225 -0.51,0.525 0,0.39 0.3,0.63 0.75,0.63 0.465,0 0.645,-0.135 1.395,-1.05 0.405,-0.48 0.72,-0.885 1.35,-1.755 l 0.45,1.8 c 0.195,0.765 0.39,1.005 0.87,1.005 0.57,0 0.96,-0.36 1.83,-1.71 l -0.21,-0.12 z"
         style="font-style:italic;font-variant:normal;font-weight:normal;font-stretch:normal;font-family:Times;-inkscape-font-specification:Times"
         id="path5071"
         inkscape:connector-curvature="0" />
    </g>
    <path
       style="fill:none;fill-rule:evenodd;stroke:#000000;stroke-width:0.29605708;stroke-linecap:butt;stroke-linejoin:miter;stroke-miterlimit:4;stroke-dasharray:0.5921141, 0.5921141;stroke-dashoffset:0;stroke-opacity:1"
       d="m 29.496413,384.96828 38.980745,-0.46463 -0.02406,-34.84662"
       id="path4461"
       inkscape:connector-curvature="0"
       sodipodi:nodetypes="ccc" />
    <ellipse
       style="opacity:1;fill:#ffffff;fill-opacity:1;stroke:none;stroke-width:3;stroke-linecap:square;stroke-miterlimit:4;stroke-dasharray:none;stroke-dashoffset:0;stroke-opacity:1"
       id="path5361"
       cx="65.086433"
       cy="383.71262"
       rx="2.7176771"
       ry="2.8827071" />
    <g
       style="font-style:normal;font-weight:normal;font-size:15px;line-height:125%;font-family:sans-serif;letter-spacing:0px;word-spacing:0px;fill:#000000;fill-opacity:1;stroke:none;stroke-width:1px;stroke-linecap:butt;stroke-linejoin:miter;stroke-opacity:1"
       id="text4463"
       transform="matrix(0.70556898,0,0,0.8121518,7.9504492,58.939428)">
      <path
         d="m 40.126028,438.25037 c 0.195,-0.045 0.3,-0.06 0.465,-0.06 0.855,0 1.08,0.375 1.77,2.955 0.255,0.975 0.615,2.73 0.615,2.985 0,0.24 -0.09,0.48 -0.315,0.75 -0.465,0.615 -0.765,1.005 -0.93,1.185 -0.315,0.33 -0.495,0.45 -0.69,0.45 -0.09,0 -0.195,-0.045 -0.36,-0.165 -0.225,-0.18 -0.39,-0.255 -0.555,-0.255 -0.33,0 -0.585,0.255 -0.585,0.585 0,0.375 0.33,0.66 0.765,0.66 0.96,0 2.925,-2.25 4.545,-5.22 1.02,-1.845 1.44,-2.925 1.44,-3.66 0,-0.45 -0.375,-0.825 -0.825,-0.825 -0.345,0 -0.585,0.225 -0.585,0.555 0,0.225 0.12,0.39 0.42,0.585 0.285,0.165 0.39,0.3 0.39,0.51 0,0.6 -0.555,1.77 -1.83,3.885 l -0.3,-1.74 c -0.225,-1.32 -1.065,-3.795 -1.29,-3.795 l -0.06,0 c -0.015,0.015 -0.075,0.015 -0.135,0.015 -0.135,0.015 -0.675,0.105 -1.47,0.255 -0.075,0.015 -0.27,0.06 -0.48,0.09 l 0,0.255 z"
         style="font-style:italic;font-variant:normal;font-weight:normal;font-stretch:normal;font-family:Times;-inkscape-font-specification:Times"
         id="path5068"
         inkscape:connector-curvature="0" />
    </g>
    <path
       style="fill:none;fill-rule:evenodd;stroke:#000000;stroke-width:0.75698686px;stroke-linecap:butt;stroke-linejoin:miter;stroke-opacity:1;marker-start:url(#Arrow1Lstart);marker-end:url(#Arrow1Lend)"
       d="m 29.317239,418.8348 -0.356366,-68.91338 72.698697,-0.41019"
       id="path5867"
       inkscape:connector-curvature="0"
       sodipodi:nodetypes="ccc" />
    <g
       id="g4282"
       transform="matrix(0.4525655,0,0,-0.44428323,-50.3699,586.11553)">
      <g
         id="g4284"
         clip-path="url(#clipPath40)">
        <g
           id="g4286"
           transform="matrix(1,0,0,0.93910313,267.0678,336.68738)">
          <path
             id="path4288"
             d="m 0,0 -18.75,37.25 -2.75,17.5 0.25,18.5 0.75,8.75 -0.5,8 2.75,1 6.25,-6 0.75,30.75 2.25,13.25 4,1.5 3,-1.5 1.5,-4.75 L 0.25,99 c 0,0 8,4 11.5,-6.5 0,0 8.25,3 11.5,-10 0,0 6.5,1 10.5,-8.75 L 37,63 34.75,32 l -3,-9 0.5,-8.25 L 31.5,9 C 31.5,9 15.25,-6.25 0,0"
             inkscape:connector-curvature="0"
             style="fill:#ffffff" />
        </g>
        <g
           id="g4290"
           transform="matrix(1,0,0,1.0889878,261.3178,468.44855)">
          <path
             id="path4292"
             d="m 0,0 c -5.652,0 -10.25,-4.598 -10.25,-10.25 0,-3.841 2.127,-7.191 5.262,-8.946 l 0.128,2.295 c -2.051,1.503 -3.39,3.921 -3.39,6.651 0,4.549 3.701,8.25 8.25,8.25 4.549,0 8.25,-3.701 8.25,-8.25 0,-2.496 -1.118,-4.731 -2.875,-6.245 l 0.132,-2.386 c 2.847,1.823 4.743,5.007 4.743,8.631 C 10.25,-4.598 5.652,0 0,0"
             inkscape:connector-curvature="0"
             style="fill:#000000;fill-opacity:1" />
        </g>
        <g
           id="g4294"
           transform="matrix(1,0,0,0.87770866,301.7397,384.83225)">
          <path
             id="path4296"
             d="M 0,0 C -0.075,-0.942 -0.136,-1.7 -0.169,-2.209 -0.371,-5.336 -0.984,-14.851 -2.924,-19.336 -5.092,-24.351 -3.696,-30.74 -3.635,-31.01 l 0.05,-0.173 c 0.389,-1.098 0.252,-2.366 -0.399,-3.667 -1.011,-2.022 -4.207,-5.883 -14.26,-9.025 -12.061,-3.768 -15.611,-0.182 -15.853,0.083 -1.07,1.789 -21.037,35.412 -20.408,51.131 0.085,6.061 0.354,22.197 0.573,24.055 0.181,1.538 -0.068,3.638 -0.332,5.861 -0.252,2.124 -0.72,6.077 -0.165,6.716 0,0 0.101,0.017 0.345,-0.053 l 0.288,-0.052 c 0.157,-0.016 3.773,-0.474 5.518,-6.674 -0.049,-3.081 -0.095,-6.336 -0.138,-9.779 -0.036,-2.882 -0.062,-5.009 -0.088,-6.013 -0.154,-5.854 -2.135,-9.625 -2.155,-9.662 l 1.321,-0.711 1.318,-0.714 c 0.096,0.176 2.341,4.391 2.515,11.008 0.026,1.011 0.053,3.153 0.089,6.055 0.043,3.505 0.092,6.832 0.145,10.001 l 0.054,0.014 c -0.015,0.063 -0.035,0.117 -0.052,0.179 0.454,27.12 1.24,41.845 2.336,43.779 0.918,1.345 2.407,2.042 3.71,1.734 1.13,-0.269 1.863,-1.247 2.064,-2.754 0.206,-1.544 0.464,-6.904 0.763,-13.109 0.876,-18.208 1.718,-33.578 3.162,-37.243 l 2.791,1.1 c -0.912,2.317 -1.653,12.083 -2.221,21.978 1.554,0.315 2.914,0.104 4.141,-0.639 2.749,-1.665 4.453,-5.878 5.13,-9.266 0.688,-3.439 1.469,-12.615 1.476,-12.708 l 2.99,0.253 c -0.032,0.384 -0.803,9.438 -1.524,13.043 -0.088,0.44 -0.244,1.125 -0.477,1.94 5.81,0.123 7.262,-5.721 7.415,-6.428 0.64,-2.943 4.879,-14.461 5.058,-14.95 l 2.816,1.037 c -0.912,2.474 -2.361,6.496 -3.466,9.767 3.453,-0.5 5.308,-4.056 7.279,-8.567 0.546,-1.248 1.061,-2.426 1.615,-3.359 C 1.611,20.109 0.398,4.974 0,0 m 2.368,24.709 c -0.459,0.773 -0.938,1.869 -1.445,3.029 -1.863,4.266 -4.615,10.563 -11.028,10.436 -0.223,0.725 -0.391,1.32 -0.476,1.714 -0.794,3.653 -4.09,9.471 -11.385,8.716 -1.013,2.362 -2.592,4.918 -5.003,6.378 -1.762,1.068 -3.731,1.421 -5.863,1.08 -0.218,4.039 -0.408,7.975 -0.568,11.302 -0.314,6.532 -0.562,11.692 -0.785,13.361 -0.366,2.746 -1.991,4.718 -4.345,5.276 -2.5,0.595 -5.268,-0.597 -6.881,-2.962 -1.428,-2.094 -2.251,-13.479 -2.754,-39.42 -2.145,2.597 -4.529,3.122 -5.219,3.217 -1.443,0.373 -2.377,-0.084 -2.914,-0.541 -1.869,-1.592 -1.441,-5.207 -0.945,-9.393 0.232,-1.952 0.471,-3.971 0.331,-5.158 -0.281,-2.39 -0.581,-23.467 -0.592,-24.324 -0.677,-16.921 20.001,-51.377 20.881,-52.835 l 0.057,-0.087 c 0.299,-0.425 2.429,-3.099 8.694,-3.099 2.687,0 6.134,0.492 10.522,1.863 10.558,3.299 14.555,7.556 16.05,10.547 0.99,1.982 1.194,4.076 0.577,5.91 -0.138,0.68 -1.113,5.901 0.553,9.755 1.923,4.448 2.63,12.473 2.995,18.123 0.032,0.499 0.092,1.241 0.166,2.164 0.876,10.937 1.406,21.531 -0.623,24.948"
             inkscape:connector-curvature="0"
             style="fill:#000000;fill-opacity:1" />
        </g>
      </g>
    </g>
  </g>
</svg>
