<?xml version="1.0" encoding="UTF-8" standalone="no"?>
<!-- Created with Inkscape (http://www.inkscape.org/) -->

<svg
   xmlns:dc="http://purl.org/dc/elements/1.1/"
   xmlns:cc="http://creativecommons.org/ns#"
   xmlns:rdf="http://www.w3.org/1999/02/22-rdf-syntax-ns#"
   xmlns:svg="http://www.w3.org/2000/svg"
   xmlns="http://www.w3.org/2000/svg"
   xmlns:sodipodi="http://sodipodi.sourceforge.net/DTD/sodipodi-0.dtd"
   xmlns:inkscape="http://www.inkscape.org/namespaces/inkscape"
   width="147.56618mm"
   height="98.835098mm"
   viewBox="0 0 522.87228 350.2031"
   id="svg2"
   version="1.1"
   inkscape:version="0.91 r13725"
   sodipodi:docname="TSLIB logo v2.svg">
  <defs
     id="defs4">
    <inkscape:path-effect
       effect="spiro"
       id="path-effect5359"
       is_visible="true" />
    <inkscape:path-effect
       effect="spiro"
       id="path-effect5355"
       is_visible="true" />
    <inkscape:path-effect
       effect="spiro"
       id="path-effect4545"
       is_visible="true" />
    <inkscape:path-effect
       effect="spiro"
       id="path-effect4541"
       is_visible="true" />
    <inkscape:path-effect
       effect="spiro"
       id="path-effect4537"
       is_visible="true" />
    <inkscape:path-effect
       effect="spiro"
       id="path-effect4533"
       is_visible="true" />
    <inkscape:path-effect
       effect="spiro"
       id="path-effect4529"
       is_visible="true" />
    <inkscape:path-effect
       effect="spiro"
       id="path-effect4525"
       is_visible="true" />
    <inkscape:path-effect
       effect="spiro"
       id="path-effect4495"
       is_visible="true" />
    <inkscape:path-effect
       effect="spiro"
       id="path-effect4491"
       is_visible="true" />
    <inkscape:path-effect
       effect="spiro"
       id="path-effect4487"
       is_visible="true" />
    <inkscape:path-effect
       effect="spiro"
       id="path-effect4483"
       is_visible="true" />
    <marker
       inkscape:stockid="Arrow1Lend"
       orient="auto"
       refY="0"
       refX="0"
       id="Arrow1Lend"
       style="overflow:visible"
       inkscape:isstock="true">
      <path
         id="path4156"
         d="M 0,0 5,-5 -12.5,0 5,5 0,0 Z"
         style="fill:#000000;fill-opacity:1;fill-rule:evenodd;stroke:#000000;stroke-width:1pt;stroke-opacity:1"
         transform="matrix(-0.8,0,0,-0.8,-10,0)"
         inkscape:connector-curvature="0" />
    </marker>
    <marker
       inkscape:stockid="Arrow1Lstart"
       orient="auto"
       refY="0"
       refX="0"
       id="Arrow1Lstart"
       style="overflow:visible"
       inkscape:isstock="true">
      <path
         id="path4153"
         d="M 0,0 5,-5 -12.5,0 5,5 0,0 Z"
         style="fill:#000000;fill-opacity:1;fill-rule:evenodd;stroke:#000000;stroke-width:1pt;stroke-opacity:1"
         transform="matrix(0.8,0,0,0.8,10,0)"
         inkscape:connector-curvature="0" />
    </marker>
  </defs>
  <sodipodi:namedview
     id="base"
     pagecolor="#ffffff"
     bordercolor="#666666"
     borderopacity="1.0"
     inkscape:pageopacity="0.0"
     inkscape:pageshadow="2"
     inkscape:zoom="1.4"
     inkscape:cx="253.99067"
     inkscape:cy="133.97627"
     inkscape:document-units="px"
     inkscape:current-layer="layer1"
     showgrid="false"
     showguides="false"
     fit-margin-top="0"
     fit-margin-left="0"
     fit-margin-right="0"
     fit-margin-bottom="0"
     inkscape:window-width="1920"
     inkscape:window-height="1024"
     inkscape:window-x="0"
     inkscape:window-y="30"
     inkscape:window-maximized="1" />
  <metadata
     id="metadata7">
    <rdf:RDF>
      <cc:Work
         rdf:about="">
        <dc:format>image/svg+xml</dc:format>
        <dc:type
           rdf:resource="http://purl.org/dc/dcmitype/StillImage" />
        <dc:title />
      </cc:Work>
    </rdf:RDF>
  </metadata>
  <g
     inkscape:label="Layer 1"
     inkscape:groupmode="layer"
     id="layer1"
     transform="translate(-25.21063,-335.66354)">
    <g
       style="font-style:normal;font-weight:normal;font-size:15px;line-height:125%;font-family:sans-serif;letter-spacing:0px;word-spacing:0px;fill:#000000;fill-opacity:1;stroke:none;stroke-width:1px;stroke-linecap:butt;stroke-linejoin:miter;stroke-opacity:1"
       id="text4467">
      <path
         d="m 488.88291,347.12595 c -0.12,0.135 -0.195,0.225 -0.33,0.405 -0.345,0.45 -0.525,0.6 -0.69,0.6 -0.225,0 -0.36,-0.195 -0.465,-0.615 -0.03,-0.12 -0.045,-0.21 -0.06,-0.255 -0.375,-1.515 -0.54,-2.205 -0.54,-2.43 0.66,-1.155 1.2,-1.815 1.47,-1.815 0.09,0 0.21,0.045 0.36,0.12 0.18,0.105 0.285,0.135 0.405,0.135 0.315,0 0.525,-0.225 0.525,-0.54 0,-0.315 -0.255,-0.555 -0.615,-0.555 -0.66,0 -1.23,0.54 -2.265,2.145 l -0.165,-0.825 c -0.21,-1.02 -0.375,-1.32 -0.78,-1.32 -0.33,0 -0.84,0.135 -1.755,0.435 l -0.165,0.06 0.06,0.225 c 0.57,-0.135 0.705,-0.165 0.84,-0.165 0.375,0 0.465,0.135 0.675,1.035 l 0.435,1.845 -1.23,1.755 c -0.3,0.45 -0.6,0.72 -0.765,0.72 -0.09,0 -0.24,-0.045 -0.39,-0.135 -0.195,-0.105 -0.36,-0.15 -0.48,-0.15 -0.285,0 -0.51,0.225 -0.51,0.525 0,0.39 0.3,0.63 0.75,0.63 0.465,0 0.645,-0.135 1.395,-1.05 0.405,-0.48 0.72,-0.885 1.35,-1.755 l 0.45,1.8 c 0.195,0.765 0.39,1.005 0.87,1.005 0.57,0 0.96,-0.36 1.83,-1.71 l -0.21,-0.12 z"
         style="font-style:italic;font-variant:normal;font-weight:normal;font-stretch:normal;font-family:Times;-inkscape-font-specification:Times"
         id="path5071"
         inkscape:connector-curvature="0" />
    </g>
    <path
       style="fill:none;fill-rule:evenodd;stroke:#000000;stroke-width:1px;stroke-linecap:butt;stroke-linejoin:miter;stroke-opacity:1"
       d="m 435.97092,524.68377 c 0.3389,-0.37902 0.81544,-0.63221 1.31921,-0.7009 0.50377,-0.0687 1.03071,0.0476 1.45871,0.32209 0.0643,0.0412 0.12638,0.0858 0.19249,0.12401 0.0661,0.0382 0.13691,0.07 0.21212,0.0831 0.0752,0.0131 0.15544,0.006 0.22299,-0.0293 0.0338,-0.0178 0.064,-0.0426 0.0869,-0.0731 0.0229,-0.0305 0.0384,-0.0668 0.0431,-0.10469 0.005,-0.0418 -0.002,-0.0842 0,-0.12627 0.003,-0.0563 0.025,-0.11098 0.0591,-0.15587 0.0341,-0.0449 0.0803,-0.0801 0.13156,-0.10366 0.10246,-0.0471 0.2218,-0.0471 0.33139,-0.0205 0.21919,0.0533 0.40183,0.20434 0.61432,0.28003 0.17326,0.0617 0.36481,0.071 0.54325,0.0264 0.17844,-0.0446 0.34307,-0.14297 0.4669,-0.27897"
       id="path4527"
       inkscape:path-effect="#path-effect4529"
       inkscape:original-d="m 435.97092,524.68377 c 0.97558,-0.11147 1.78813,-0.37881 2.77792,-0.37881 0.0788,0 0.6933,0.0643 0.75762,0 0.0298,-0.0298 -0.0298,-0.0965 0,-0.12627 0.11135,-0.11136 0.97673,0 1.13642,0 0.22708,0 1.01015,-0.007 1.01015,-0.25254"
       inkscape:connector-curvature="0" />
    <path
       style="fill:none;fill-rule:evenodd;stroke:#000000;stroke-width:1px;stroke-linecap:butt;stroke-linejoin:miter;stroke-opacity:1"
       d="m 434.32942,517.48643 c 2.03648,0.37709 4.12675,0.46241 6.18719,0.25254 0.71599,-0.0729 1.44978,-0.18011 2.14657,0 0.22004,0.0569 0.43278,0.14197 0.63135,0.25254"
       id="path4531"
       inkscape:path-effect="#path-effect4533"
       inkscape:original-d="m 434.32942,517.48643 c 2.10428,-0.10696 4.1406,-0.25911 6.18719,0.25254 0.45364,0.11341 1.81198,-0.1673 2.14657,0 0.34755,0.17377 0.17799,0.25254 0.63135,0.25254"
       inkscape:connector-curvature="0" />
    <path
       style="fill:none;fill-rule:evenodd;stroke:#000000;stroke-width:1px;stroke-linecap:butt;stroke-linejoin:miter;stroke-opacity:1"
       d="m 433.95062,467.86269 c 0.29138,0.0617 0.58688,0.10392 0.88388,0.12627 0.75574,0.0569 1.51511,-0.015 2.27284,0 0.97026,0.0191 1.95055,0.17982 2.90419,0 0.74945,-0.14132 1.45758,-0.49539 2.02031,-1.01016"
       id="path4535"
       inkscape:path-effect="#path-effect4537"
       inkscape:original-d="m 433.95062,467.86269 c 0.52197,-0.0582 0.48271,-0.007 0.88388,0.12627 0.39397,0.13132 1.77495,0 2.27284,0 0.88543,0 2.04617,0.143 2.90419,0 0.74866,-0.12478 1.35595,-0.67798 2.02031,-1.01016"
       inkscape:connector-curvature="0" />
    <path
       style="fill:none;fill-rule:evenodd;stroke:#000000;stroke-width:1px;stroke-linecap:butt;stroke-linejoin:miter;stroke-opacity:1"
       d="m 433.95062,463.69581 c -0.0123,-0.17601 0.0326,-0.35556 0.12627,-0.50508 0.14854,-0.23707 0.40935,-0.38696 0.68062,-0.45531 0.27128,-0.0684 0.55519,-0.0636 0.8346,-0.0498 0.21048,0.0105 0.4222,0.0258 0.63135,0 0.34483,-0.0426 0.66743,-0.19533 1.01015,-0.25254 0.49908,-0.0833 1.01081,0.0398 1.51523,0 0.29682,-0.0234 0.58706,-0.10295 0.88388,-0.12627 0.084,-0.007 0.16869,-0.009 0.25254,0 0.13348,0.0138 0.26762,0.0571 0.36837,0.14569 0.0504,0.0443 0.0916,0.0996 0.1165,0.16189 0.0249,0.0623 0.0332,0.13166 0.0202,0.19749 -0.0122,0.062 -0.0432,0.12006 -0.0878,0.16471 -0.0446,0.0446 -0.10276,0.0756 -0.16471,0.0878 l 0.12627,0.12627"
       id="path4539"
       inkscape:path-effect="#path-effect4541"
       inkscape:original-d="m 433.95062,463.69581 c 0.0421,-0.16836 0.0179,-0.36957 0.12627,-0.50508 0.0426,-0.0532 1.40341,-0.49265 1.51522,-0.50507 0.20917,-0.0232 0.42219,0.0232 0.63135,0 0.34496,-0.0383 0.66519,-0.21421 1.01015,-0.25254 0.49617,-0.0551 1.02096,0.0706 1.51523,0 1.09826,-0.1569 -0.0109,-0.12627 0.88388,-0.12627 0.0842,0 0.17268,-0.0266 0.25254,0 0.10007,0.0333 0.5176,0.48002 0.50508,0.50507 -0.29019,0.58037 -0.25254,-0.1625 -0.25254,0.25254 0.16836,0 0.12627,-0.0421 0.12627,0.12627"
       inkscape:connector-curvature="0" />
    <path
       style="fill:none;fill-rule:evenodd;stroke:#000000;stroke-width:1px;stroke-linecap:butt;stroke-linejoin:miter;stroke-opacity:1"
       d="m 435.59211,413.56699 c 0.16496,-0.0544 0.33393,-0.0966 0.50508,-0.12627 0.58221,-0.10076 1.17866,-0.0544 1.76752,-0.006 0.58886,0.0486 1.18452,0.0989 1.76801,0.006 0.21196,-0.0338 0.42047,-0.0863 0.63135,-0.12627 0.66554,-0.12616 1.35476,-0.12616 2.0203,0"
       id="path4543"
       inkscape:path-effect="#path-effect4545"
       inkscape:original-d="m 435.59211,413.56699 c 0.16836,-0.0421 0.33288,-0.10475 0.50508,-0.12627 1.15941,-0.14493 2.37045,0.0971 3.53553,0 0.21388,-0.0178 0.41805,-0.10257 0.63135,-0.12627 0.65584,-0.0729 1.35814,0 2.0203,0"
       inkscape:connector-curvature="0" />
    <path
       style="fill:none;fill-rule:evenodd;stroke:#000000;stroke-width:1;stroke-linecap:butt;stroke-linejoin:miter;stroke-miterlimit:4;stroke-dasharray:2, 2;stroke-dashoffset:0;stroke-opacity:1"
       d="m 30.304576,379.09553 409.111774,-0.50508 -0.25253,-37.88071"
       id="path4461"
       inkscape:connector-curvature="0"
       sodipodi:nodetypes="ccc" />
    <path
       style="fill:none;fill-rule:evenodd;stroke:#000000;stroke-width:4;stroke-linecap:butt;stroke-linejoin:miter;stroke-opacity:1;stroke-miterlimit:4;stroke-dasharray:none"
       d="m 239.55409,456.38707 -75.76144,0 0.65301,113.87676 37.61023,0.653 0.12256,37.55421 -38.74294,-0.50507 0.27048,39.57453 76.41445,-0.47445 0.44381,-114.665 -38.63834,-0.63135 0.25253,-38.13325 38.25953,0.25253 z"
       id="path4473"
       inkscape:connector-curvature="0"
       sodipodi:nodetypes="ccccccccccccc" />
    <path
       style="fill:none;fill-rule:evenodd;stroke:#000000;stroke-width:4;stroke-linecap:butt;stroke-linejoin:miter;stroke-opacity:1;stroke-miterlimit:4;stroke-dasharray:none"
       d="m 298.01667,397.65029 -38.7646,0.12626 0.25254,249.88649 76.90683,-0.62763 0.11729,-38.80421 -37.88072,0.41841 z"
       id="path4475"
       inkscape:connector-curvature="0"
       sodipodi:nodetypes="ccccccc" />
    <path
       style="fill:#000000;fill-opacity:1;stroke-width:1;stroke-miterlimit:4;stroke-dasharray:none"
       d="m 447.00562,659.76837 c -5.5,-0.63646 -10.78788,-1.62529 -11.75085,-2.19742 -3.74824,-2.22693 -5.74915,-8.38186 -5.74915,-17.68478 0,-4.84117 -0.42378,-9.58352 -0.94173,-10.53856 -1.72498,-3.18066 -4.93053,-18.6375 -5.44109,-26.23643 -0.20188,-5.72677 2.89176,-10.01415 3.35922,3 0.0967,3.025 0.75772,7.075 1.46901,9 l 1.29326,3.5 0.69704,-5.5 c 0.79313,-6.25826 0.0525,-25.08803 -1.39625,-35.5 -0.53571,-3.85 -1.02047,-10.375 -1.07724,-14.5 l -0.10322,-7.5 -3.37472,7 c -4.00026,8.29753 -4.08438,9.35977 -1.48428,18.74256 2.79403,13.88323 5.80547,29.45402 0.96301,21.4214 -0.99638,-0.76248 -5.46349,-24.92658 -5.72496,-28.58098 -0.39663,-5.54347 -0.12498,-7.21917 1.63954,-10.11366 1.16321,-1.90813 2.11662,-4.43969 2.11867,-5.6257 1.22266,-4.33285 0.0431,-1.79241 2.14737,-7.02852 0.77527,-1.90836 1.2198,-15.3769 1.38012,-41.8151 0.21847,-36.02701 0.82292,-69.59362 1.98421,-110.18877 0.40906,-14.29952 0.74079,-16.8086 2.84252,-21.5 1.30868,-2.92118 3.49976,-6.3407 4.86906,-7.59894 2.22606,-2.0455 2.94929,-2.18443 6.83122,-1.31222 -4.24943,0.0493 3.57644,-1.62867 6.99209,5.18391 1.39272,2.72996 1.97115,5.93869 2.00571,11.12618 0.0267,4.00941 0.41585,11.78984 0.86476,17.28984 0.44892,5.5 0.4845,10.225 0.0791,10.5 -1.66965,1.13252 0.14842,87.0573 2.11589,100 0.89571,5.8923 1.20953,6.5 3.35657,6.5 1.30267,0 2.29349,-0.29373 2.20182,-0.65274 -0.25004,-0.97926 7.02538,-5.73186 9.86583,-6.44477 5.25781,-1.31963 9.52379,0.50429 15.49363,6.62429 l 5.73773,5.88205 8.11807,-0.32417 c 4.46494,-0.1783 8.11807,0.0147 8.11807,0.42895 0,0.41422 0.82172,0.96801 1.82603,1.23065 1.87441,0.49016 8.17397,10.61095 8.17397,13.13218 6.83389,7.3211 8.41664,-2.4019 14.68388,10.08684 1.38949,2.91379 1.44811,4.48392 0.43684,11.70105 -0.6424,4.58462 -1.8236,11.26067 -2.6249,14.83567 -0.86521,3.86014 -1.39849,10.96745 -1.31306,17.5 0.13221,10.10982 -0.10142,11.60694 -2.88699,18.5 -1.66696,4.125 -3.37528,9.075 -3.79626,11 -0.96312,4.40399 -5.28656,13.86151 -7.54286,16.5 -0.94067,1.1 -2.27819,3.8 -2.97228,6 -1.80937,5.73501 -4.48535,9.12325 -9.5492,12.09086 -4.15727,2.43632 -5.13664,2.58264 -15.68466,2.34329 -6.18778,-0.14041 -15.07551,2e-4 -19.75051,0.31246 -4.675,0.31227 -13,0.047 -18.5,-0.58942 z m 37,-3.2889 c 14.12383,1.87606 14.56648,-4.00045 23.42604,-7.54294 0.28818,0.17875 -1.33834,1.18084 -1.14522,0.45209 0.23255,-0.8775 2.01331,-2.27049 1.31063,-1.27709 -0.58345,0.825 -1.06771,1.06504 -1.07613,0.53343 -0.0239,-1.51054 3.19764,-9.86525 4.44728,-11.53343 12.74909,-23.99754 11.15449,-49.96943 17.01905,-75.40396 2.51728,-10.6396 -0.22024,-15.29442 -9.67322,-16.44815 -4.99937,-0.61017 -5.32517,-0.82255 -5.59607,-3.64789 -0.1582,-1.65 -1.2343,-4.89859 -2.39132,-7.21909 -2.57427,-5.16291 -6.4416,-6.72676 -15.88603,-6.4239 l -6.565,0.21052 -4.34334,-5.15095 c -5.28944,-6.27297 -11.19384,-6.05769 -14.096,-6.88786 -1.6083,-0.46006 -6.43701,2.67873 -7.10518,2.26577 -0.77074,-0.47634 2.12426,-2.18482 2.57331,-1.45824 0.43458,0.70318 -0.66382,1.79935 -2.84549,2.83972 -1.95432,0.93195 -3.55331,2.06111 -3.55331,2.50924 0,0.44814 -1.33963,0.81479 -2.97695,0.81479 -5.2028,0 -6.32912,-3.16427 -6.15431,-17.28994 0.0831,-6.71553 -0.31553,-18.06006 -0.88584,-25.21006 -6.74507,-31.555 7.21436,-66.40948 -2.23224,-95.35502 -1.58519,4.2852 -3.82305,5.85502 -8.34663,5.85502 -2.3573,0 -4.58834,-0.48921 -4.95788,-1.08713 -1.7727,-2.86829 -2.32503,2.74459 -2.8623,29.08713 -0.31971,15.675 -0.82659,37.275 -1.12642,48 -0.29982,10.725 -0.73622,26.7 -0.96977,35.5 -0.23355,8.8 0.0196,22.3 0.56259,30 0.54298,7.7 1.23476,18.5 1.53729,24 0.30253,5.5 1.23904,14.95 2.08113,21 1.24091,8.91521 1.39707,16.40151 0.82394,39.5 -0.63032,25.40388 -0.52502,28.951 0.96927,32.65145 0.9929,2.45881 2.5656,4.44409 3.85727,4.86919 5.3387,1.75702 22.59486,2.95559 31.18085,2.16575 4.95,-0.45536 11.7,-0.59866 15,-0.31845 z M 441.6769,386.4565 c 3.41231,-4.07204 4.97371,-6.68104 3.38041,-10.23043 -1.39035,-3.08324 -2.43001,-4.11458 -4.14778,-4.11458 -16.65755,7.94667 -4.83188,19.17375 0.76737,14.34501 z"
       id="path4519"
       inkscape:connector-curvature="0"
       sodipodi:nodetypes="csssccscssscsccssccssssccsscssssscsscccsssssssssscccccccccsssscsscsssssccssssssssssssccccc" />
    <path
       style="fill:none;fill-rule:evenodd;stroke:#000000;stroke-width:4;stroke-linecap:butt;stroke-linejoin:miter;stroke-opacity:1;stroke-miterlimit:4;stroke-dasharray:none"
       d="m 355.69811,532.46604 0.11543,114.61402 38.5171,0.17857 0.1952,-114.91885 z"
       id="path4479"
       inkscape:connector-curvature="0"
       sodipodi:nodetypes="ccccc" />
    <path
       style="fill:none;fill-rule:evenodd;stroke:#000000;stroke-width:4;stroke-linecap:butt;stroke-linejoin:miter;stroke-opacity:1;stroke-miterlimit:4;stroke-dasharray:none"
       d="m 355.44928,455.52485 -0.0631,38.00699 38.95401,0.12627 -0.0632,-37.88072 z"
       id="path4477"
       inkscape:connector-curvature="0"
       sodipodi:nodetypes="ccccc" />
    <path
       style="fill:none;fill-rule:evenodd;stroke:#000000;stroke-width:4;stroke-linecap:butt;stroke-linejoin:miter;stroke-opacity:1;stroke-miterlimit:4;stroke-dasharray:none"
       d="m 66.83332,455.71657 -37.138425,-0.17858 -0.274202,38.33612 38.133259,0.37881 -10e-7,153.41691 38.764599,0 0.25254,-153.66944 38.89088,-0.12628 -0.28317,-38.06826 -37.70215,0.14793 -1.15809,-57.66535 -38.385801,0.50507 z"
       id="path4471"
       inkscape:connector-curvature="0"
       sodipodi:nodetypes="ccccccccccccc" />
    <path
       style="fill:none;fill-rule:evenodd;stroke:#000000;stroke-width:1px;stroke-linecap:butt;stroke-linejoin:miter;stroke-opacity:1"
       d="m 435.08704,532.13364 c -0.0746,0.0622 -0.12746,0.15007 -0.14736,0.24516 -0.0199,0.0951 -0.007,0.19678 0.0367,0.28368 0.0435,0.0869 0.1169,0.15843 0.20492,0.19957 0.088,0.0411 0.19,0.0516 0.28454,0.0292 0.0212,-0.005 0.0421,-0.0117 0.0638,-0.0137 0.0108,-0.001 0.0219,-8.7e-4 0.0325,0.001 0.0107,0.002 0.0211,0.006 0.0299,0.0125 0.009,0.006 0.0163,0.0153 0.0215,0.0251 0.005,0.01 0.008,0.0207 0.01,0.0317 0.003,0.0221 -0.001,0.0445 -0.007,0.0659 -0.006,0.0214 -0.014,0.0423 -0.0196,0.0638 -0.006,0.0215 -0.009,0.0442 -0.005,0.066 0.004,0.0198 0.013,0.0383 0.0258,0.0538 0.0128,0.0155 0.029,0.0281 0.0465,0.038 0.0351,0.0198 0.075,0.0287 0.11439,0.0371 0.0394,0.008 0.0794,0.0167 0.11509,0.0353 0.0179,0.009 0.0345,0.0212 0.0481,0.036 0.0136,0.0149 0.024,0.0328 0.0289,0.0523 0.005,0.0205 0.004,0.042 0.002,0.063 -0.002,0.0211 -0.004,0.0422 -0.002,0.0632 0.003,0.0249 0.0117,0.049 0.0254,0.07 0.0137,0.021 0.0318,0.0389 0.0522,0.0535 0.0408,0.0291 0.0898,0.0445 0.13905,0.054 0.0492,0.01 0.0993,0.0137 0.14857,0.0229 0.0493,0.009 0.0985,0.0239 0.13985,0.0521 0.0496,0.0339 0.0845,0.0848 0.1206,0.1328 0.0361,0.048 0.0767,0.096 0.13194,0.11974 0.0396,0.017 0.084,0.0202 0.12687,0.0162 0.0429,-0.004 0.0848,-0.0148 0.12671,-0.0249 0.0419,-0.0101 0.0843,-0.0195 0.12736,-0.0205 0.0431,-0.001 0.0873,0.007 0.12413,0.0292 0.0256,0.0155 0.0466,0.0373 0.0663,0.0598 0.0196,0.0225 0.0381,0.0461 0.06,0.0665 0.0481,0.0448 0.11096,0.072 0.17566,0.0839 0.0647,0.0118 0.13138,0.009 0.19639,-0.001 0.13,-0.02 0.25487,-0.0679 0.38557,-0.0827 0.14752,-0.0167 0.29602,0.009 0.44349,0.0265 0.14747,0.0172 0.30107,0.0248 0.44039,-0.0265 0.0863,-0.0318 0.16333,-0.085 0.23252,-0.14555 0.0692,-0.0606 0.13124,-0.12874 0.19492,-0.19508 0.0637,-0.0663 0.12952,-0.13134 0.20474,-0.18424 0.0752,-0.0529 0.16065,-0.0936 0.2517,-0.10648 0.0418,-0.006 0.0845,-0.006 0.12627,0 0.0896,-0.0299 0.1749,-0.0725 0.25254,-0.12627 0.0984,-0.0681 0.18441,-0.15412 0.25254,-0.25253 0.0644,-0.0717 0.15655,-0.11779 0.25254,-0.12627 0.10787,-0.01 0.21379,0.0264 0.3202,0.0466 0.0532,0.0101 0.10764,0.0162 0.16151,0.0107 0.0539,-0.006 0.1074,-0.0234 0.14963,-0.0573 0.0465,-0.0373 0.0774,-0.0921 0.12627,-0.12627 0.0267,-0.0186 0.0579,-0.0303 0.09,-0.0362 0.0321,-0.006 0.065,-0.006 0.0974,-0.003 0.0648,0.006 0.1276,0.0258 0.19142,0.039 0.13796,0.0285 0.28325,0.0272 0.41796,-0.014 0.1347,-0.0412 0.25815,-0.12361 0.33965,-0.23851 0.0176,-0.0248 0.0333,-0.0511 0.053,-0.0742 0.0197,-0.0232 0.0442,-0.0435 0.0733,-0.0521 0.0207,-0.006 0.0428,-0.006 0.0641,-0.003 0.0214,0.003 0.0423,0.008 0.0633,0.0131 0.021,0.005 0.0424,0.009 0.064,0.008 0.0215,-5.6e-4 0.0434,-0.006 0.0611,-0.0181 0.0201,-0.0139 0.0335,-0.0358 0.0417,-0.0587 0.008,-0.023 0.0118,-0.0473 0.0159,-0.0714 0.004,-0.0241 0.009,-0.0483 0.0193,-0.0704 0.0104,-0.0221 0.027,-0.0421 0.0493,-0.052 0.0203,-0.009 0.0435,-0.009 0.0652,-0.005 0.0217,0.004 0.0425,0.0124 0.0635,0.0194 0.021,0.007 0.0429,0.0127 0.065,0.0117 0.0111,-4.6e-4 0.0221,-0.003 0.0323,-0.007 0.0102,-0.004 0.0195,-0.0109 0.0265,-0.0195 0.007,-0.009 0.0115,-0.0188 0.0139,-0.0295 0.002,-0.0107 0.003,-0.0218 0.002,-0.0328 -0.002,-0.0219 -0.009,-0.0428 -0.0155,-0.0639 -0.0508,-0.17544 -0.0144,-0.37389 0.0953,-0.5199 0.10974,-0.146 0.29023,-0.23614 0.47288,-0.23614 0.18265,0 0.36314,0.0901 0.47288,0.23614 0.10973,0.14601 0.14612,0.34446 0.0953,0.5199"
       id="path4523"
       inkscape:path-effect="#path-effect4525"
       inkscape:original-d="m 435.08704,532.13364 c 0.10006,0.061 0.30412,0.68293 0.37881,0.75762 0.0298,0.0298 0.10744,-0.0376 0.12626,0 0.0376,0.0753 -0.0376,0.17724 0,0.25254 0.006,0.0113 0.32245,0.13981 0.37881,0.25253 0.0188,0.0376 -0.0298,0.0965 0,0.12627 0.0106,0.0106 0.49443,0.2419 0.50508,0.25254 0.29813,0.29813 -0.70429,-0.0664 0.25254,0.25254 0.15152,0.0505 0.35355,-0.0505 0.50507,0 0.0565,0.0188 0.0685,0.11183 0.12627,0.12627 0.16001,0.04 0.57058,0 0.75762,0 0.1913,0 0.70832,0.0878 0.88388,0 0.30977,-0.15489 0.57411,-0.47646 0.88388,-0.63135 0.0376,-0.0188 0.0842,0 0.12627,0 0.0842,-0.0421 0.17423,-0.0741 0.25254,-0.12627 0.099,-0.066 0.1396,-0.21489 0.25254,-0.25253 0.71552,0 0.0421,0.0842 0.25254,-0.12627 0.0875,-0.0875 0.51141,0.04 0.63134,0 0.0565,-0.0188 0.0698,-0.10745 0.12627,-0.12627 0.11364,-0.0379 0.26517,0.0379 0.37881,0 0.19027,-0.0634 0.59198,-0.16973 0.75761,-0.25254 0.0532,-0.0266 0.0698,-0.10745 0.12627,-0.12627 0.0799,-0.0266 0.1825,0.0467 0.25254,0 0.0783,-0.0522 0.0597,-0.18599 0.12627,-0.25254 0.0595,-0.0595 0.19301,0.0595 0.25254,0 0.0298,-0.0298 -0.0298,-0.0965 0,-0.12627 0.0832,-0.0832 0.87957,0 1.13642,0"
       inkscape:connector-curvature="0" />
    <path
       style="fill:none;fill-rule:evenodd;stroke:#000000;stroke-width:1px;stroke-linecap:butt;stroke-linejoin:miter;stroke-opacity:1;marker-start:url(#Arrow1Lstart);marker-end:url(#Arrow1Lend)"
       d="M 30.304576,435.159 29.7995,339.69958 478.87544,340.70974"
       id="path4147"
       inkscape:connector-curvature="0"
       sodipodi:nodetypes="ccc" />
    <ellipse
       style="opacity:1;fill:#ffffff;fill-opacity:1;stroke:none;stroke-width:3;stroke-linecap:square;stroke-miterlimit:4;stroke-dasharray:none;stroke-dashoffset:0;stroke-opacity:1"
       id="path5361"
       cx="438.87137"
       cy="379.27066"
       rx="6.9866076"
       ry="8.0245533" />
    <path
       style="fill:none;fill-rule:evenodd;stroke:#000000;stroke-width:1px;stroke-linecap:butt;stroke-linejoin:miter;stroke-opacity:1"
       d="m 448.34529,549.55877 c 2.06074,3.55433 3.83607,7.27408 5.3033,11.11168 0.37374,0.97754 0.73178,1.98423 0.75762,3.03046 0.0146,0.58971 -0.0771,1.18294 0,1.76777 0.12917,0.97974 0.71489,1.83484 1.01015,2.77792 0.45775,1.46209 0.19545,3.04284 -0.11551,4.54302 -0.31096,1.50019 -0.66852,3.04188 -0.38957,4.54835 0.19411,1.04829 0.68653,2.01466 1.01015,3.03046 0.51791,1.62564 0.59681,3.35221 0.75762,5.05076 0.23231,2.45371 0.64286,4.88645 1.01015,7.32361 0.32843,2.17931 0.62271,4.3662 0.75762,6.56599 0.2068,3.372 0.0371,6.76696 -0.50508,10.10152"
       id="path4481"
       inkscape:path-effect="#path-effect4483"
       inkscape:original-d="m 448.34529,549.55877 c 2.3316,3.40612 3.51806,7.5412 5.3033,11.11168 0.499,0.998 0.0185,2.29132 0.75762,3.03046 0.30079,0.3008 -0.20168,1.36442 0,1.76777 0.45739,0.91478 0.56446,1.88654 1.01015,2.77792 0.55201,1.10401 -0.15448,8.03957 -0.50508,9.09137 -0.23874,0.71622 0.7032,2.41656 1.01015,3.03046 0.44568,0.89135 0.28225,3.62465 0.75762,5.05076 0.67558,2.02674 -0.12992,5.04347 1.01015,7.32361 0.82983,1.65965 -0.15223,4.74629 0.75762,6.56599 1.23997,2.47995 -1.59825,9.00836 -0.50508,10.10152"
       inkscape:connector-curvature="0" />
    <path
       style="fill:none;fill-rule:evenodd;stroke:#000000;stroke-width:1px;stroke-linecap:butt;stroke-linejoin:miter;stroke-opacity:1"
       d="m 473.34657,546.78086 c 0.30178,3.46226 0.0449,6.9726 -0.75762,10.35406 -0.68399,2.88196 -1.76035,5.66896 -2.27284,8.5863 -0.59934,3.41174 -0.41147,6.9146 0,10.35406 0.10052,0.84022 0.21435,1.68003 0.25254,2.52538 0.0572,1.26635 -0.056,2.53576 -0.25254,3.78807 -0.58923,3.75404 -1.92168,7.35994 -2.52538,11.11168 -0.2689,1.67112 -0.39164,3.36195 -0.50508,5.05076 -0.32767,4.87813 -0.58025,9.76131 -0.75761,14.64722"
       id="path4485"
       inkscape:path-effect="#path-effect4487"
       inkscape:original-d="m 473.34657,546.78086 c -1.0087,3.32087 0.071,7.03954 -0.75762,10.35406 -0.69907,2.79629 -1.36915,5.87523 -2.27284,8.5863 -0.17683,0.53047 -0.30549,9.74308 0,10.35406 0.27576,0.55152 0.47952,1.84444 0.25254,2.52538 -0.4012,1.20359 0.1366,2.62065 -0.25254,3.78807 -1.16434,3.49302 -1.59556,7.3924 -2.52538,11.11168 -0.40553,1.6221 -0.0982,3.42321 -0.50508,5.05076 -0.53611,2.14444 0.0783,13.81135 -0.75761,14.64722"
       inkscape:connector-curvature="0" />
    <path
       style="fill:none;fill-rule:evenodd;stroke:#000000;stroke-width:1px;stroke-linecap:butt;stroke-linejoin:miter;stroke-opacity:1"
       d="m 497.33769,558.65015 c -0.44828,2.82614 -1.12463,5.61608 -2.02031,8.33376 -0.60214,1.82701 -1.30832,3.64332 -1.51523,5.55584 -0.0821,0.75848 -0.0849,1.52856 -0.25253,2.27284 -0.35802,1.5901 -1.44009,2.94905 -1.76777,4.54568 -0.15334,0.74713 -0.13504,1.51925 -0.25254,2.27285 -0.15636,1.00281 -0.54902,1.95088 -0.92532,2.89347 -0.3763,0.94259 -0.74284,1.90488 -0.84245,2.91491 -0.0744,0.75443 0.002,1.51475 0,2.27284 -0.0102,3.19556 -1.41337,6.2065 -2.0203,9.34391 -0.72302,3.7375 -0.30823,7.6227 -1.01015,11.36422 -0.49063,2.61526 -1.52969,5.12632 -3.03046,7.3236"
       id="path4489"
       inkscape:path-effect="#path-effect4491"
       inkscape:original-d="m 497.33769,558.65015 c -0.16701,2.85218 -0.9658,5.6975 -2.02031,8.33376 -0.75835,1.89588 -0.62515,3.77568 -1.51523,5.55584 -0.29619,0.59239 0.0353,1.69708 -0.25253,2.27284 -0.74207,1.48414 -1.04468,3.0995 -1.76777,4.54568 -0.29581,0.59162 -0.0424,1.64237 -0.25254,2.27285 -0.64358,1.93074 -1.19269,4.08314 -1.76777,5.80838 -0.21702,0.65107 0.30362,1.66561 0,2.27284 -1.29171,2.58343 -1.12955,6.67166 -2.0203,9.34391 -0.83774,2.51321 -0.11809,9.58008 -1.01015,11.36422 -0.61442,1.22884 -3.5036,6.85046 -3.03046,7.3236"
       inkscape:connector-curvature="0" />
    <g
       style="font-style:normal;font-weight:normal;font-size:15px;line-height:125%;font-family:sans-serif;letter-spacing:0px;word-spacing:0px;fill:#000000;fill-opacity:1;stroke:none;stroke-width:1px;stroke-linecap:butt;stroke-linejoin:miter;stroke-opacity:1"
       id="text4463"
       transform="translate(-1.6821081,-4.0406102)">
      <path
         d="m 40.126028,438.25037 c 0.195,-0.045 0.3,-0.06 0.465,-0.06 0.855,0 1.08,0.375 1.77,2.955 0.255,0.975 0.615,2.73 0.615,2.985 0,0.24 -0.09,0.48 -0.315,0.75 -0.465,0.615 -0.765,1.005 -0.93,1.185 -0.315,0.33 -0.495,0.45 -0.69,0.45 -0.09,0 -0.195,-0.045 -0.36,-0.165 -0.225,-0.18 -0.39,-0.255 -0.555,-0.255 -0.33,0 -0.585,0.255 -0.585,0.585 0,0.375 0.33,0.66 0.765,0.66 0.96,0 2.925,-2.25 4.545,-5.22 1.02,-1.845 1.44,-2.925 1.44,-3.66 0,-0.45 -0.375,-0.825 -0.825,-0.825 -0.345,0 -0.585,0.225 -0.585,0.555 0,0.225 0.12,0.39 0.42,0.585 0.285,0.165 0.39,0.3 0.39,0.51 0,0.6 -0.555,1.77 -1.83,3.885 l -0.3,-1.74 c -0.225,-1.32 -1.065,-3.795 -1.29,-3.795 l -0.06,0 c -0.015,0.015 -0.075,0.015 -0.135,0.015 -0.135,0.015 -0.675,0.105 -1.47,0.255 -0.075,0.015 -0.27,0.06 -0.48,0.09 l 0,0.255 z"
         style="font-style:italic;font-variant:normal;font-weight:normal;font-stretch:normal;font-family:Times;-inkscape-font-specification:Times"
         id="path5068"
         inkscape:connector-curvature="0" />
    </g>
  </g>
</svg>
